<svg width="4456" height="830" viewBox="0 0 4456 830" fill="none" xmlns="http://www.w3.org/2000/svg">
<path d="M4143.64 97.5249V193.667H4087.66H4031.69V243.467V293.267H4087.66H4143.64V382.492V471.717H4193.39H4243.15V382.492V293.267H4299.13H4355.1V243.467V193.667H4299.13H4243.15V97.5249V1.38327H4193.39H4143.64V97.5249Z" fill="#FF5655"/>
<path d="M3932.17 143.867V193.667H3981.24H4030.3V143.867V94.0667H3981.24H3932.17V143.867Z" fill="#FF5655"/>
<path d="M4356.49 143.867V193.667H4405.55H4454.62V143.867V94.0667H4405.55H4356.49V143.867Z" fill="#FF5655"/>
<path d="M1800.92 275.145V393.973L1791.66 384.982C1773.28 367.413 1751.58 355.24 1727.67 349.015C1711.08 344.727 1680.12 343.205 1660.91 345.833C1605.35 353.303 1560.01 387.057 1533.06 440.73C1521.32 464.108 1512.19 494.68 1507.22 527.05C1504.04 546.832 1502.93 603.272 1505.01 626.235C1510.95 689.73 1531.68 741.328 1565.41 777.295C1590.56 804.132 1622.35 821.147 1657.87 826.818C1677.91 830 1709.98 828.755 1727.81 824.052C1753.1 817.412 1775.35 804.27 1795.53 784.073C1802.3 777.295 1807.83 772.592 1807.83 773.56C1807.83 774.528 1809.08 785.042 1810.6 796.8C1812.12 808.558 1813.36 818.657 1813.36 819.21C1813.36 819.902 1837.69 820.317 1867.26 820.317H1921.17V488.317V156.317H1861.04H1800.92V275.145ZM1739.69 443.358C1762.08 447.508 1782.4 461.48 1795.25 481.262L1800.92 490.115V586.533V682.952L1795.67 691.113C1787.79 703.01 1772.59 716.705 1760.56 722.653C1735.41 734.827 1699.2 734.827 1676.11 722.515C1666.02 717.12 1649.02 699.828 1642.8 688.623C1636.45 677.28 1630.37 659.712 1627.6 644.772C1622.21 616.137 1621.52 570.763 1626.08 540.053C1631.47 504.363 1645.15 475.59 1664.37 459.543C1683.44 443.497 1710.39 437.825 1739.69 443.358Z" fill="black"/>
<path d="M510.007 496.617V828.617H569.439H628.871V757.652V686.687L655.684 661.925C670.335 648.23 683.051 637.025 683.603 636.748C684.295 636.61 714.425 679.632 750.499 732.475L816.15 828.478L889.956 828.617C960.169 828.617 963.624 828.478 961.689 826.127C960.583 824.882 915.802 764.292 862.452 691.667C808.963 619.042 764.735 558.867 764.044 557.898C763.076 556.792 787.955 528.295 848.077 461.757C894.932 409.743 934.599 365.892 936.119 364.093L938.884 361.05H867.151H795.418L729.905 432.983C693.969 472.547 657.067 513.493 647.806 523.868C638.684 534.382 630.668 543.097 630.115 543.373C629.424 543.65 628.871 459.405 628.871 354.272V164.617H569.439H510.007V496.617Z" fill="black"/>
<path d="M3184.44 243.467V293.267H3234.19H3283.95V243.467V193.667H3234.19H3184.44V243.467Z" fill="black"/>
<path d="M3932.17 343.067V392.867H3981.24H4030.3V343.067V293.267H3981.24H3932.17V343.067Z" fill="#FF5655"/>
<path d="M4356.49 343.067V392.867H4405.55H4454.62V343.067V293.267H4405.55H4356.49V343.067Z" fill="#FF5655"/>
<path d="M171.385 345.972C125.636 351.228 81.9605 369.903 54.4561 395.91C35.7973 413.755 24.1873 431.462 17.5531 453.042C14.3742 463.14 11.0571 481.4 11.0571 488.455C11.0571 490.945 12.7156 491.083 71.0417 491.083H130.888L131.717 482.783C133.238 466.045 144.295 449.445 158.945 441.975C171.385 435.612 181.336 433.813 202.483 433.952C232.06 434.09 250.857 440.038 266.061 454.287C282.232 469.365 287.484 484.305 287.484 515.845V535.35H240.215C214.093 535.35 185.621 536.042 176.913 536.733C80.0256 545.448 22.2524 583.905 5.2521 651.135C2.48784 661.648 2.0732 666.905 2.21141 688.9C2.21141 712.693 2.48784 715.322 6.08138 726.942C22.667 781.307 69.936 818.103 134.62 827.095C149.547 829.17 180.783 829.032 195.019 826.68C229.296 821.147 258.874 807.175 282.37 785.733C288.313 780.2 291.768 777.848 292.183 779.093C292.46 780.062 293.98 786.702 295.638 793.618C297.159 800.673 299.785 809.527 301.443 813.4L304.346 820.317H365.16H425.974L425.283 815.752C424.868 813.4 422.104 804.132 419.063 795.417C408.421 765.122 408.697 769.41 407.591 619.042C406.624 481.953 406.624 480.847 400.819 459.82C380.916 386.78 308.354 343.897 206.214 344.588C192.808 344.727 177.051 345.28 171.385 345.972ZM287.484 647.123V688.347L280.85 696.508C267.166 713.662 246.434 726.25 221.418 732.613C204.97 736.902 177.328 737.593 164.059 733.997C134.343 725.835 118.034 702.872 120.937 673.13C124.254 638.962 147.612 616.828 187.97 609.497C204.556 606.453 206.353 606.453 249.199 606.177L287.484 605.9V647.123Z" fill="black"/>
<path d="M1165.55 345.972C1078.89 356.07 1016.97 405.732 1006.88 473.1C1005.78 480.293 1004.81 487.348 1004.81 488.593C1004.81 490.945 1008.54 491.083 1064.8 491.083H1124.64L1125.61 482.507C1127.27 465.768 1138.33 449.307 1152.7 441.975C1164.72 435.888 1175.37 433.952 1196.24 433.952C1227.06 434.09 1245.58 440.315 1261.34 455.808C1276.82 471.163 1281.24 484.167 1281.24 514.877V535.35H1233.97C1182 535.35 1164.31 536.457 1135.84 541.575C1063.97 554.578 1018.63 588.608 1001.63 642.558C997.071 656.945 995.136 671.47 995.136 690.007C995.275 761.387 1048.21 816.028 1128.37 827.095C1153.53 830.553 1187.81 828.34 1212.13 821.7C1234.11 815.613 1265.76 797.215 1279.72 782.413C1285.25 776.742 1286.77 776.188 1286.77 780.338C1286.77 784.627 1292.02 804.823 1295.34 812.985L1298.1 820.317H1358.78H1419.45V816.858C1419.45 814.922 1417.93 809.665 1416 805.1C1414.06 800.673 1411.3 792.097 1409.64 786.287C1402.45 760.003 1402.59 762.078 1401.48 618.35C1400.38 473.1 1400.65 476.973 1393.05 453.733C1373.56 394.527 1320.21 356.9 1240.74 346.525C1223.19 344.312 1182.83 343.897 1165.55 345.972ZM1281.24 646.847V687.655L1277.23 693.603C1268.52 706.33 1250.28 719.887 1232.73 727.08C1203.15 739.115 1165.28 739.53 1142.61 728.187C1123.81 718.642 1112.2 695.678 1114.69 673.13C1118.28 641.175 1138.05 620.148 1173.02 611.433C1189.74 607.145 1201.49 606.315 1242.95 606.038L1281.24 605.9V646.847Z" fill="black"/>
<path d="M2194.83 346.663C2091.45 362.433 2018.47 443.22 2006.72 554.578C2004.23 578.648 2005.89 632.045 2009.62 649.475C2024.69 719.61 2064.63 771.347 2128.49 803.163C2166.63 822.253 2204.09 829.723 2253.98 828.202C2288.12 827.233 2311.34 822.807 2342.3 811.187C2377.55 798.045 2410.03 775.635 2428.27 751.98L2434.21 744.233L2428.27 737.593C2404.78 712.002 2375.34 680.6 2374.64 680.6C2374.09 680.6 2371.47 683.367 2368.56 686.687C2356.12 701.627 2327.79 718.503 2303.33 725.558C2274.44 733.858 2241.27 735.242 2217.63 729.155C2184.19 720.44 2156.54 698.583 2140.37 667.873C2134.29 656.668 2127.1 635.088 2127.1 628.587V625.267H2285.36H2443.61V588.885C2443.61 539.362 2440.3 513.632 2430.34 483.06C2404.64 404.348 2345.76 356.208 2262.55 345.972C2246.38 343.897 2210.59 344.312 2194.83 346.663ZM2265.32 446.263C2300.98 458.298 2323.37 488.87 2325.72 528.71L2326.55 542.267H2227.45H2128.49L2129.32 538.393C2140.79 487.072 2167.05 454.148 2205.06 443.912C2213.07 441.698 2218.33 441.422 2234.22 441.698C2251.08 442.252 2255.09 442.805 2265.32 446.263Z" fill="black"/>
<path d="M2754.18 346.525C2730.68 350.537 2711.06 358.56 2689.77 372.67C2676.36 381.662 2656.88 399.783 2649.14 410.435C2646.79 413.755 2644.57 416.383 2644.02 416.383C2643.61 416.383 2641.67 403.518 2640.01 387.61C2638.22 371.84 2636.56 357.592 2636.14 355.793L2635.45 352.75H2581.69H2527.92V586.533V820.317H2588.05H2648.17V653.21V486.242L2654.39 478.357C2666.97 462.172 2685.62 450.137 2706.22 444.465C2718.52 441.007 2755.15 441.145 2769.11 444.465C2796.75 451.243 2813.2 467.567 2821.35 496.202L2824.39 506.992L2824.81 663.723L2825.22 820.317H2885.34H2945.47L2944.91 660.957C2944.5 546.417 2943.95 498.277 2942.7 490.392C2933.72 430.632 2912.99 392.313 2876.91 368.658C2859.08 356.9 2840.56 350.122 2816.1 346.525C2799.51 344.035 2768.97 344.035 2754.18 346.525Z" fill="black"/>
<path d="M3648.83 346.663C3575.3 356.623 3519.47 395.495 3500.67 449.583C3496.8 460.65 3494.03 474.898 3494.03 483.613V491.083H3553.33H3612.62L3613.59 483.198C3615.11 471.025 3619.26 461.48 3626.72 453.318C3639.71 439.07 3655.05 433.952 3684.08 433.952C3714.07 433.952 3733.28 440.177 3748.76 454.978C3764.66 470.195 3769.36 483.475 3769.63 514.6L3769.77 534.658L3712.41 535.488C3650.35 536.457 3635.84 537.84 3604.61 545.725C3547.11 560.25 3507.3 592.343 3491.96 636.057C3485.33 655.008 3483.95 664.553 3483.95 688.9C3483.95 707.99 3484.36 713.523 3486.99 722.792C3501.64 777.295 3546.83 815.06 3609.86 825.988C3627.41 828.893 3657.96 829.585 3674.4 827.233C3710.34 822.115 3741.99 807.175 3766.04 784.073C3770.05 780.2 3773.5 777.295 3773.78 777.572C3774.06 777.848 3775.58 784.35 3777.37 791.958C3779.03 799.567 3781.79 809.112 3783.32 812.985L3786.08 820.317H3846.62H3907.29V816.582C3907.29 814.645 3905.63 808.835 3903.7 803.993C3899.55 793.48 3894.44 773.975 3891.95 759.312C3890.71 751.98 3890.02 710.48 3889.33 614.892C3888.36 466.46 3888.77 473.93 3879.1 447.923C3872.6 430.632 3862.79 415 3849.38 400.89C3820.91 370.733 3778.06 351.92 3724.57 345.972C3706.33 343.897 3666.52 344.312 3648.83 346.663ZM3770.46 646.155V686.272L3766.45 692.22C3760.37 701.073 3745.44 714.353 3734.94 720.163C3707.85 735.38 3670.81 740.637 3643.17 733.167C3628.52 729.155 3615.39 718.365 3608.34 704.808C3604.61 697.477 3604.05 694.848 3603.5 682.537C3602.53 660.127 3608.06 645.463 3622.71 631.353C3635.98 618.765 3657.82 610.05 3683.11 607.422C3688.92 606.73 3711.03 606.177 3732.18 606.038L3770.46 605.9V646.155Z" fill="black"/>
<path d="M3028.26 401.858V450.967H3095.29H3162.32V587.225V723.483H3095.29H3028.26V771.9V820.317H3218.99H3409.72V771.9V723.483H3346.15H3282.57V538.117V352.75H3155.41H3028.26V401.858Z" fill="black"/>
<path d="M4123.32 620.149C4094.37 622.663 4069.01 636.613 4051.75 659.521C4040.44 674.532 4033.7 692.47 4032.21 711.665C4031.93 715.064 4031.93 722.844 4032.21 726.243C4034.35 753.454 4046.98 777.935 4067.84 795.283C4074.49 800.823 4082.94 806.05 4090.72 809.488C4107.53 816.895 4125.56 819.508 4143.95 817.17C4150.51 816.345 4158.89 814.301 4164.89 812.062C4172.82 809.115 4178.61 806.167 4185.59 801.57C4195.21 795.224 4203.32 787.581 4210.22 778.386C4225.75 757.678 4232.49 731.98 4229.17 705.987C4225.05 673.549 4204.42 644.747 4174.88 630.149C4164.34 624.942 4154.26 621.976 4142.24 620.502C4138.47 620.05 4126.98 619.834 4123.32 620.149ZM4139.72 640.464C4160.8 642.861 4179.58 653.293 4192.87 669.974C4202.05 681.467 4207.7 695.279 4209.47 710.407C4209.73 712.549 4209.83 714.867 4209.83 718.954C4209.83 724.986 4209.57 728.109 4208.65 733.1C4205.15 752.079 4195.11 768.779 4179.89 780.941C4177.67 782.728 4172.7 786.068 4169.99 787.621C4160.8 792.866 4150.57 796.187 4139.53 797.464C4135.42 797.955 4126.54 797.955 4122.44 797.464C4101.01 794.969 4082.49 784.713 4069.09 767.934C4059.94 756.48 4054.26 742.648 4052.5 727.5C4052.01 723.394 4052.01 714.514 4052.5 710.407C4054.5 693.177 4061.41 678.009 4073.02 665.357C4085.77 651.466 4103.74 642.428 4122.44 640.483C4124.07 640.306 4125.88 640.13 4126.47 640.09C4128.74 639.933 4137.09 640.169 4139.72 640.464Z" fill="black"/>
<path d="M4088 716.5V768H4101.29H4114.57V748.534V729.067L4120.2 729.145C4126.65 729.243 4127.56 729.399 4130.77 730.983C4132.25 731.725 4132.9 732.175 4134.21 733.504C4137.24 736.514 4137.84 737.628 4149.74 761.883L4152.73 768H4166.87C4174.63 768 4181 767.961 4181 767.922C4181 767.609 4164.24 734.286 4163.34 732.82C4161.56 729.927 4160.13 728.012 4158.28 726.038C4155.56 723.184 4153.18 721.582 4149.93 720.428L4148.18 719.803L4149.9 719.256C4152.26 718.474 4156.17 716.441 4158.14 714.956C4163.32 711.067 4166.27 706.083 4167.46 699.203C4167.95 696.389 4167.91 689.861 4167.36 686.89C4165.21 675.046 4157.52 668.479 4142.8 665.977C4137.47 665.059 4135.46 665 4111.02 665H4088V716.5ZM4130.79 684.545C4132.76 684.838 4135.46 685.776 4136.71 686.558C4138.68 687.828 4140.15 689.998 4140.89 692.753C4141.38 694.571 4141.38 700.141 4140.89 701.939C4139.74 706.2 4137.37 708.584 4133.09 709.835C4130.57 710.558 4128.31 710.734 4121.12 710.734H4114.57V697.424V684.095L4121.96 684.212C4126 684.271 4129.99 684.427 4130.79 684.545Z" fill="black"/>
</svg>
